<?xml version="1.0" encoding="UTF-8" standalone="no"?>
<svg width="48px" height="48px" viewBox="0 0 48 48" version="1.1" xmlns="http://www.w3.org/2000/svg" xmlns:xlink="http://www.w3.org/1999/xlink" xmlns:sketch="http://www.bohemiancoding.com/sketch/ns">
    <!-- Generator: Sketch 3.3.2 (12043) - http://www.bohemiancoding.com/sketch -->
    <title>circle</title>
    <desc>Created with Sketch.</desc>
    <defs></defs>
    <g id="Page-1" stroke="none" stroke-width="1" fill="none" fill-rule="evenodd" sketch:type="MSPage">
        <g id="circle" sketch:type="MSArtboardGroup" fill="#00B7D9">
            <path d="M25.8478533,0.522428096 C24.0300746,-0.545092372 21.6992925,0.0755488841 20.6419097,1.90873115 C19.5843824,3.74191343 20.2009119,6.09346391 22.0188352,7.16113027 C23.8366139,8.22865074 26.1673961,7.60800948 27.2247788,5.77482721 C28.2823061,3.94164494 27.6657767,1.59009446 25.8478533,0.522428096 Z M14.1200574,10.6690518 C15.1774401,8.83586957 14.5610552,6.48431909 12.7431319,5.41679862 C10.9253532,4.34927815 8.59442645,4.96991941 7.53704371,6.80310168 C6.47966096,8.63628395 7.09619043,10.9878344 8.91396917,12.0553549 C10.7318925,13.1230213 13.0626746,12.50238 14.1200574,10.6690518 Z M7.09994976,22.8398356 C8.15733251,21.0066534 7.54094762,18.6551029 5.7230243,17.5875824 C3.90524557,16.519916 1.57431883,17.1407032 0.516936086,18.9738855 C-0.540446659,20.8070677 0.0760828121,23.1586182 1.89386154,24.2261387 C3.71178487,25.2936591 6.04256702,24.6730179 7.09994976,22.8398356 Z M7.97861993,31.5025519 C6.16069661,30.4350315 3.82991446,31.0556727 2.77253171,32.888855 C1.71514897,34.7220373 2.33153385,37.0735878 4.14945717,38.1411082 C5.9672359,39.2087746 8.29801805,38.5879874 9.35554539,36.7548052 C10.4129281,34.9216229 9.79639866,32.5700724 7.97861993,31.5025519 Z M18.9305488,40.5265066 C17.1126255,39.4589861 14.7818434,40.0796273 13.7244606,41.9128096 C12.6670779,43.7459919 13.2836073,46.0975424 15.1013861,47.1650628 C16.9191648,48.2327292 19.2500915,47.611942 20.3074743,45.7787598 C21.364857,43.9455775 20.7483276,41.594027 18.9305488,40.5265066 Z M32.7041411,40.8388697 C30.8862178,39.7713493 28.5554356,40.3919905 27.4980529,42.2251728 C26.4406701,44.0583551 27.057055,46.4099055 28.8749783,47.4775719 C30.6927571,48.5450924 33.0235392,47.9244511 34.0810666,46.0912688 C35.1384493,44.2579407 34.5219198,41.9065361 32.7041411,40.8388697 Z M43.7937192,31.7987207 C41.9759404,30.7312002 39.6450137,31.3518414 38.587631,33.1850237 C37.5302482,35.018206 38.1467777,37.3697565 39.9645564,38.4372769 C41.7824797,39.5049433 44.1132619,38.8841562 45.1706446,37.0509739 C46.2280274,35.2177916 45.6116425,32.8662411 43.7937192,31.7987207 Z M46.1061385,17.6037768 C44.2882151,16.5362564 41.957433,17.1568976 40.9000502,18.9900799 C39.8426675,20.8234081 40.4590524,23.1748127 42.2769757,24.242479 C44.0947544,25.3099995 46.4256812,24.6893582 47.4830639,22.856176 C48.5404467,21.0229937 47.9239172,18.6714432 46.1061385,17.6037768 Z M40.5699525,10.6496477 C41.6274798,8.81646541 41.0109504,6.46491493 39.1931716,5.39724857 C37.3752483,4.3297281 35.0444662,4.95036935 33.9870834,6.78355162 C32.9297007,8.6167339 33.5460855,10.9682844 35.3640089,12.0359507 C37.1817876,13.1034712 39.5127143,12.48283 40.5699525,10.6496477 Z" id="Fill-1-Copy" sketch:type="MSShapeGroup"></path>
        </g>
    </g>
</svg>