<?xml version="1.0" encoding="UTF-8" standalone="no"?>
<svg width="210px" height="48px" viewBox="0 0 210 48" version="1.1" xmlns="http://www.w3.org/2000/svg" xmlns:xlink="http://www.w3.org/1999/xlink" xmlns:sketch="http://www.bohemiancoding.com/sketch/ns">
    <!-- Generator: Sketch 3.3.2 (12043) - http://www.bohemiancoding.com/sketch -->
    <title>mycircle-white</title>
    <desc>Created with Sketch.</desc>
    <defs></defs>
    <g id="Page-1" stroke="none" stroke-width="1" fill="none" fill-rule="evenodd" sketch:type="MSPage">
        <g id="mycircle-white" sketch:type="MSArtboardGroup" fill="#FFFFFF">
            <path d="M107.441389,34.7279381 L105.672409,31.9260741 C105.672409,31.9260741 102.413811,35.8325527 96.7286265,35.8325527 C90.8735197,35.8325527 85.8510623,31.5967619 85.8510623,24.7749294 C85.8510623,18.0608486 90.6539972,13.6047724 96.6179053,13.6047724 C98.9356917,13.6047724 102.968058,14.7090683 102.968058,17.0206299 L102.968058,18.610765 L106.500258,18.610765 L106.500258,16.1369382 C106.500258,11.5731102 99.7632212,10.2475726 96.6179053,10.2475726 C88.3336507,10.2475726 81.9834982,16.3039852 81.9834982,24.7749294 C81.9834982,33.3542628 88.2798901,39.2436284 96.5612646,39.2436284 C103.684866,39.2436284 107.441389,34.7279381 107.441389,34.7279381 Z M116.954137,34.1244646 L116.954137,14.2672224 C116.954137,11.9017849 115.959246,10.9103414 113.587059,10.9103414 L113.200175,10.9103414 L113.200175,15.3667364 L113.200175,35.2236598 C113.200175,37.5945168 114.195386,38.5808596 116.567573,38.5808596 L120.488898,38.5808596 L120.488898,35.336831 L118.171111,35.336831 C117.397663,35.336831 116.954137,34.948861 116.954137,34.1244646 Z M157.641002,39.2436284 C164.764603,39.2436284 168.523366,34.7279381 168.523366,34.7279381 L166.755026,31.9260741 C166.755026,31.9260741 163.493869,35.8325527 157.809004,35.8325527 C151.956137,35.8325527 146.9324,31.5967619 146.9324,24.7749294 C146.9324,18.0608486 151.734375,13.6047724 157.700203,13.6047724 C160.015749,13.6047724 164.050355,14.7090683 164.050355,17.0206299 L164.050355,18.610765 L167.582876,18.610765 L167.582876,16.1369382 C167.582876,11.5731102 160.843279,10.2475726 157.700203,10.2475726 C149.413708,10.2475726 143.064836,16.3039852 143.064836,24.7749294 C143.064836,33.3542628 149.359628,39.2436284 157.641002,39.2436284 Z M130.536693,38.5808596 L130.536693,24.7749294 C130.536693,18.0608486 135.453549,13.6047724 141.419057,13.6047724 L141.419057,10.2475726 C136.997886,10.2475726 133.128082,11.9741507 130.480052,14.8710147 L130.480052,14.0462995 C130.480052,11.847909 129.43332,10.9103414 127.112973,10.9103414 L123.245409,10.9103414 L123.245409,14.15437 L125.565756,14.15437 C126.339205,14.15437 126.78273,14.5962159 126.78273,15.3667364 L126.78273,38.5808596 L130.536693,38.5808596 Z M177.036744,38.5808596 L180.958388,38.5808596 L180.958388,35.336831 L178.637722,35.336831 C177.864273,35.336831 177.425868,34.948861 177.425868,34.1244646 L177.425868,3.89213296 C177.425868,1.52159477 176.430657,0.535251964 174.05591,0.535251964 L173.672225,0.535251964 L173.672225,35.2236598 C173.672225,37.5945168 174.661996,38.5808596 177.036744,38.5808596 Z M210,23.0129653 C210,16.1369382 206.024275,10.2475726 198.348667,10.2475726 C190.895142,10.2475726 184.657951,15.6954111 184.657951,24.7749294 C184.657951,33.2997494 190.949222,39.2436284 199.181636,39.2436284 C205.472908,39.2436284 209.502394,35.2823176 209.502394,35.2823176 L207.679654,32.475353 C207.679654,32.475353 204.422976,35.8864286 199.343878,35.8864286 C193.599813,35.8864286 188.688077,31.8715607 188.574475,24.8829999 L209.891839,24.8829999 C209.891839,24.8829999 210,23.6709523 210,23.0129653 Z M188.742157,21.9134513 C189.678168,16.3581799 193.712774,13.3886313 198.294586,13.3886313 C202.378793,13.3886313 205.915793,16.1911328 206.137556,21.9134513 L188.742157,21.9134513 Z M114.934274,4.76052268 C116.25461,4.76052268 117.326302,3.69575701 117.326302,2.38042074 C117.326302,1.06508446 116.25461,0 114.934274,0 C113.614259,0 112.545127,1.06508446 112.545127,2.38042074 C112.545127,3.69575701 113.614259,4.76052268 114.934274,4.76052268 Z M0,35.4801111 C0,37.7369151 1.83135326,39.5638517 4.09361317,39.5638517 C6.35587307,39.5638517 8.18722633,37.7369151 8.18722633,35.4801111 L8.18722633,23.1751559 C8.18722633,19.3063491 10.0724429,17.3182122 13.1426528,17.3182122 C16.2128627,17.3182122 17.9364893,19.3063491 17.9364893,23.1751559 L17.9364893,35.4801111 C17.9364893,37.7369151 19.7678425,39.5638517 22.0301024,39.5638517 C24.2923623,39.5638517 26.1237156,37.7369151 26.1237156,35.4801111 L26.1237156,23.1751559 C26.1237156,19.3063491 28.0089322,17.3182122 31.0791421,17.3182122 C34.1493519,17.3182122 35.8729785,19.3063491 35.8729785,23.1751559 L35.8729785,35.4801111 C35.8729785,37.7369151 37.7043318,39.5638517 39.9665917,39.5638517 C42.2288516,39.5638517 44.0602049,37.7369151 44.0602049,35.4801111 L44.0602049,20.4884845 C44.0602049,13.5568722 40.3974983,9.90299902 34.3109419,9.90299902 C30.3789188,9.90299902 27.3625722,11.5150019 24.8309956,14.4703405 C23.3228224,11.5687353 20.4680658,9.90299902 16.6976326,9.90299902 C12.5501562,9.90299902 10.0724429,12.1060696 8.18722633,14.5240739 L8.18722633,14.2016733 C8.18722633,11.9448693 6.35587307,10.1179327 4.09361317,10.1179327 C1.83135326,10.1179327 0,11.9448693 0,14.2016733 L0,35.4801111 Z M57.1489943,48 C62.0505575,48 64.4744074,45.7969294 66.8982573,39.9399857 L76.9707002,15.8136762 C77.1322902,15.4375422 77.3477435,14.5240739 77.3477435,13.8792727 C77.3477435,11.7299356 75.5702536,10.1179327 73.4695837,10.1179327 C71.3689137,10.1179327 70.1839205,11.5150019 69.5375605,13.2344716 L63.5048674,29.9455679 L57.256721,13.1807382 C56.5564977,11.2463347 55.3715044,10.1179327 53.3246978,10.1179327 C51.0624379,10.1179327 49.284948,11.7299356 49.284948,14.040473 C49.284948,14.5778073 49.5004013,15.3838088 49.7158546,15.921143 L59.5728442,38.7041168 L59.3035276,39.348918 C58.5494409,40.7997205 57.8492176,41.0683877 56.3949077,41.0683877 C55.802411,41.0683877 55.3715044,40.9609208 54.6712811,40.7459871 C54.3481011,40.6385203 53.9710578,40.5310534 53.3246978,40.5310534 C51.6549345,40.5310534 50.0928979,41.8743891 50.0928979,43.862526 C50.0928979,45.8506629 51.4933446,46.8178646 52.6783378,47.247732 C54.0249211,47.7313329 55.3176411,48 57.1489943,48 L57.1489943,48 Z" id="mycircle-mark" sketch:type="MSShapeGroup"></path>
        </g>
    </g>
</svg>